#define button_width 40
#define button_height 8
static unsigned char button_bits[] = {
   0xfc, 0xff, 0xff, 0xff, 0x3f, 0xfe, 0xff, 0xff, 0xff, 0x7f, 0xfe, 0xff,
   0xff, 0xff, 0x7f, 0xfe, 0xff, 0xff, 0xff, 0x7f, 0xfe, 0xff, 0xff, 0xff,
   0x7f, 0xfe, 0xff, 0xff, 0xff, 0x7f, 0xfe, 0xff, 0xff, 0xff, 0x7f, 0xfc,
   0xff, 0xff, 0xff, 0x3f };
